<?xml version="1.0" encoding="utf-8"?>
<!-- Generator: Adobe Illustrator 15.0.0, SVG Export Plug-In . SVG Version: 6.00 Build 0)  -->
<!DOCTYPE svg PUBLIC "-//W3C//DTD SVG 1.1//EN" "http://www.w3.org/Graphics/SVG/1.1/DTD/svg11.dtd">
<svg version="1.1" id="Layer_1" xmlns="http://www.w3.org/2000/svg" xmlns:xlink="http://www.w3.org/1999/xlink" x="0px" y="0px"
	 width="360px" height="216px" viewBox="0 0 360 216" enable-background="new 0 0 360 216" xml:space="preserve">
<g>
	<path fill="#00BCE4" d="M73.976,126.658h-7.993v-17.044h-14.82v17.044h-7.994V88.601h7.994v14.397h14.82V88.601h7.993V126.658z"/>
	<path fill="#00BCE4" d="M102.929,114.537H83.503c0.176,2.329,0.917,4.129,2.223,5.398c1.129,1.06,2.505,1.588,4.129,1.588
		c1.199,0,2.276-0.281,3.229-0.847c0.953-0.563,1.57-1.323,1.853-2.276h7.623c-0.847,2.858-2.365,5.074-4.552,6.644
		c-2.188,1.57-4.782,2.355-7.781,2.355c-9.422,0-14.133-5.134-14.133-15.403c0-4.34,1.191-7.808,3.573-10.401
		c2.382-2.594,5.725-3.891,10.031-3.891C98.518,97.705,102.929,103.315,102.929,114.537z M95.307,109.826
		c-0.177-1.889-0.82-3.375-1.932-4.46c-1.111-1.084-2.391-1.627-3.837-1.627c-1.412,0-2.63,0.508-3.653,1.522
		c-1.129,1.085-1.835,2.607-2.117,4.565H95.307z"/>
	<path fill="#00BCE4" d="M129.342,126.658h-6.934c-0.211-0.388-0.442-1.146-0.688-2.276c-1.729,1.906-4.482,2.858-8.258,2.858
		c-2.611,0-4.764-0.6-6.458-1.799c-1.977-1.411-2.964-3.458-2.964-6.141c0-3.846,1.5-6.492,4.499-7.939
		c1.376-0.67,4.182-1.271,8.417-1.8c3-0.388,4.5-1.199,4.5-2.435c0-1.093-0.45-1.967-1.35-2.62c-0.901-0.653-1.951-0.979-3.15-0.979
		c-1.236,0-2.294,0.335-3.176,1.006c-0.988,0.741-1.553,1.782-1.693,3.123h-7.093c0.176-2.293,0.715-4.146,1.614-5.558
		c0.9-1.411,2.356-2.505,4.367-3.282c1.87-0.706,3.987-1.059,6.352-1.059c8.011,0.071,12.016,3.9,12.016,11.487V126.658z
		 M121.456,112.896c-0.739,0.6-2.037,1.076-3.897,1.429c-2.106,0.389-3.475,0.759-4.107,1.112c-1.298,0.67-1.948,1.835-1.948,3.493
		c0,2.117,1.106,3.176,3.318,3.176c1.017,0,2.07-0.238,3.158-0.715c1.089-0.477,1.914-1.05,2.476-1.721
		c0.737-0.917,1.106-2.275,1.106-4.075c0-0.317-0.019-0.776-0.053-1.376C121.472,113.62,121.456,113.179,121.456,112.896z"/>
	<path fill="#00BCE4" d="M139.822,126.658h-7.464V88.601h7.464V126.658z"/>
	<path fill="#00BCE4" d="M209.645,126.658h-7.463v-17.044c0-1.976-0.318-3.369-0.953-4.182c-0.741-0.953-2.048-1.429-3.917-1.429
		c-1.836,0-3.256,0.618-4.262,1.853c-1.005,1.235-1.508,2.788-1.508,4.657v16.145h-7.464V88.601h7.464v13.55
		c0.564-1.235,1.622-2.223,3.176-2.964c1.552-0.741,3.264-1.111,5.135-1.111c2.681,0,4.922,0.706,6.722,2.117
		c2.046,1.624,3.07,3.935,3.07,6.934V126.658z"/>
	<path fill="#B5121B" d="M247.384,126.658h-8.68l-2.382-7.834h-14.028l-2.698,7.834h-8.363l13.497-38.058h9.21L247.384,126.658z
		 M234.046,112.314l-4.764-15.139h-0.105l-4.817,15.139H234.046z"/>
	<path fill="#B5121B" d="M286.13,126.658h-7.463v-26.042l-7.146,26.042h-7.834l-7.039-25.937v25.937h-7.464V88.601h11.698
		l6.828,27.895h0.105l6.828-27.895h11.486V126.658z"/>
	<path fill="#B5121B" d="M305.376,88.601c3.535,0,6.381,1.288,8.538,3.864c1.943,2.365,2.917,5.187,2.917,8.469
		s-0.975,6.035-2.92,8.258c-2.158,2.47-5.112,3.705-8.861,3.705h-9.286v13.762h-7.993V88.601H305.376z M303.36,106.386
		c2.02,0,3.649-0.6,4.889-1.8c1.098-1.059,1.646-2.346,1.646-3.864c0-1.482-0.549-2.752-1.646-3.811
		c-1.204-1.129-2.834-1.694-4.889-1.694h-7.597v11.169H303.36z"/>
	<g>
		<path fill="#B5121B" d="M161.786,88.601l1.523,23.617c0.309-0.757,0.664-1.369,1.068-1.738c0.992-0.909,2.247-0.568,3.163-0.325
			c0.545,0.144,1.109,0.299,1.411,0.162c0.464-0.209,1.187-1.349,1.714-2.184c1.027-1.625,2.107-3.304,3.672-3.271
			c1.544,0.035,2.498,1.704,3.421,3.317c0.446,0.781,1.051,1.835,1.476,2.121c0.128-0.002,0.377-0.041,0.547-0.067
			c0.083-0.013,0.168-0.025,0.254-0.038v-8.726h-12.869V88.601H161.786z"/>
		<path fill="#B5121B" d="M178.397,112.144c-0.976-0.484-1.664-1.688-2.393-2.963c-0.392-0.685-1.31-2.292-1.712-2.3
			c-0.448,0-1.442,1.573-1.922,2.333c-0.81,1.281-1.575,2.491-2.595,2.948c-0.952,0.428-1.95,0.163-2.751-0.048
			c-0.543-0.145-1.107-0.293-1.286-0.129c-0.729,0.669-1.605,4.277-1.997,7.236c-0.067,0.503-0.497,0.876-1,0.876
			c-0.012,0-0.023,0-0.034,0c-0.519-0.018-0.939-0.425-0.973-0.942l-1.389-21.443l-0.991,16.779
			c-0.027,0.463-0.367,0.848-0.824,0.932c-0.456,0.084-0.911-0.154-1.103-0.577c-0.544-1.207-1.333-2.486-1.655-2.685
			c-0.565-0.232-1.961-0.004-3.191,0.197c-1.954,0.319-3.972,0.649-5.185-0.332c-0.394-0.318-0.65-0.773-0.904-1.214
			c-0.512-0.89-0.796-1.28-1.433-1.28c-0.971,0-1.215,0.449-1.623,1.311c-0.203,0.429-0.385,0.873-0.773,1.186
			c-0.178,0.143-0.432,0.258-0.688,0.353v1.41h12.868v12.868h12.321V113.79h12.869v-1.557
			C179.481,112.319,178.911,112.4,178.397,112.144z"/>
		<path fill="#B5121B" d="M145.046,107.512c1.871,0,2.696,1.435,3.189,2.292c0.138,0.239,0.327,0.565,0.427,0.647
			c0.512,0.413,2.291,0.116,3.591-0.097c1.642-0.268,3.192-0.534,4.317-0.069c0.329,0.135,0.654,0.393,0.964,0.751l1.32-22.436
			h-4.01v12.868h-12.868v7.759C142.47,108.414,143.327,107.512,145.046,107.512z"/>
	</g>
</g>
</svg>
